<?xml version="1.0" standalone="no"?>
<!DOCTYPE svg PUBLIC "-//W3C//DTD SVG 20010904//EN"
 "http://www.w3.org/TR/2001/REC-SVG-20010904/DTD/svg10.dtd">
<svg version="1.0" xmlns="http://www.w3.org/2000/svg"
 width="1280.000000pt" height="1280.000000pt" viewBox="0 0 1280.000000 1280.000000"
 preserveAspectRatio="xMidYMid meet">
<metadata>
Created by potrace 1.11, written by Peter Selinger 2001-2013
</metadata>
<g transform="translate(0.000000,1280.000000) scale(0.100000,-0.100000)"
fill="#000000" stroke="none">
<path d="M7429 11305 c-2 -2 -44 -6 -94 -10 -49 -4 -103 -9 -120 -11 -16 -2
-48 -6 -70 -9 -39 -4 -52 -6 -167 -25 -129 -22 -192 -36 -309 -65 -121 -31
-245 -66 -309 -89 -25 -9 -53 -16 -62 -16 -10 0 -18 -4 -18 -10 0 -5 -3 -9 -7
-8 -15 3 -194 -61 -302 -108 -20 -9 -49 -22 -66 -29 -75 -32 -353 -169 -375
-185 -14 -10 -29 -19 -35 -20 -52 -10 -573 -360 -680 -457 -11 -10 -43 -36
-70 -58 -27 -22 -57 -47 -66 -55 -8 -8 -49 -45 -90 -81 -152 -136 -314 -306
-486 -509 -66 -78 -223 -292 -297 -405 -43 -66 -87 -132 -97 -147 -11 -15 -19
-30 -19 -32 0 -3 -13 -27 -29 -53 -81 -134 -217 -404 -278 -553 -43 -107 -53
-127 -108 -225 -84 -148 -195 -382 -264 -558 -31 -77 -80 -212 -85 -232 -1 -5
-17 -55 -34 -110 -29 -96 -86 -312 -96 -365 -2 -14 -11 -63 -20 -110 -19 -102
-23 -128 -31 -200 -3 -30 -8 -66 -10 -80 -18 -111 -24 -584 -11 -780 11 -152
22 -270 31 -330 2 -14 7 -45 10 -70 8 -57 12 -82 25 -150 6 -30 13 -71 16 -90
3 -19 7 -42 10 -50 3 -8 8 -26 10 -40 8 -42 75 -284 85 -301 10 -20 -3 -33
-126 -120 -49 -35 -92 -66 -95 -69 -10 -11 -198 -129 -295 -185 -86 -50 -471
-248 -485 -250 -3 -1 -27 -11 -55 -24 -108 -50 -366 -161 -465 -201 -58 -23
-114 -45 -125 -50 -18 -8 -94 -37 -405 -155 -63 -24 -124 -47 -135 -51 -11 -4
-22 -8 -25 -8 -3 -1 -24 -9 -45 -18 -46 -19 -426 -156 -563 -203 l-92 -32 57
-74 c31 -41 59 -76 62 -79 4 -3 33 -41 66 -85 33 -44 65 -84 71 -90 6 -5 35
-41 64 -80 30 -38 58 -74 62 -80 61 -76 118 -148 138 -175 14 -18 68 -88 121
-154 83 -106 197 -251 281 -357 14 -19 123 -158 242 -309 118 -151 228 -290
243 -308 l28 -32 90 30 c50 17 99 32 110 35 27 5 513 170 705 238 287 102 509
187 695 267 86 36 471 223 515 250 8 5 78 44 155 87 77 43 147 82 156 88 9 5
34 20 55 33 22 12 59 36 84 52 25 16 52 33 60 37 23 10 343 225 358 240 37 36
48 35 164 -21 62 -29 154 -70 203 -91 50 -20 99 -41 110 -46 11 -5 117 -43
235 -84 l215 -74 35 24 c19 14 51 39 70 56 19 17 64 56 99 87 35 32 73 65 85
75 110 95 362 361 506 532 204 244 567 765 611 877 6 16 15 28 20 28 5 0 8 3
7 8 -1 4 5 18 14 32 95 145 352 659 538 1075 37 83 87 186 111 230 75 134 153
321 239 570 21 61 52 141 68 178 l29 68 34 -58 c18 -32 38 -67 44 -78 50 -90
311 -484 334 -505 4 -3 18 -23 33 -45 14 -22 37 -52 50 -67 13 -14 32 -39 43
-54 11 -15 34 -44 50 -64 17 -20 44 -53 60 -74 17 -21 39 -48 50 -61 11 -12
49 -56 85 -96 165 -187 421 -442 570 -569 14 -11 39 -33 56 -48 17 -15 40 -34
50 -42 33 -26 129 -104 134 -110 3 -3 32 -25 65 -49 33 -25 62 -47 65 -50 8
-10 168 -123 265 -188 186 -124 326 -210 450 -278 39 -20 75 -41 80 -45 13
-11 331 -170 420 -210 76 -35 324 -140 340 -144 6 -2 24 -9 40 -15 58 -25 281
-103 405 -142 232 -74 355 -106 378 -98 12 5 67 66 122 136 55 70 105 133 110
140 6 7 10 16 10 22 0 5 3 11 8 13 8 3 93 131 128 193 177 311 285 566 379
895 13 47 26 96 29 110 45 197 57 249 60 270 10 63 45 320 50 365 27 234 27
702 1 959 -12 124 -16 155 -19 173 -3 11 -7 44 -11 74 -8 67 -11 84 -30 189
-9 47 -18 99 -21 115 -3 17 -16 75 -29 130 -13 55 -26 111 -29 125 -11 57 -97
349 -116 395 -4 11 -20 56 -35 100 -88 257 -246 602 -396 863 -61 105 -278
439 -302 464 -7 7 -23 29 -37 48 -13 19 -29 42 -37 50 -7 8 -61 74 -121 145
-60 72 -142 166 -183 210 -91 99 -377 383 -450 448 -30 27 -67 61 -84 76 -16
15 -57 49 -90 76 -33 28 -66 56 -73 63 -8 7 -30 25 -50 40 -21 15 -39 29 -42
32 -21 23 -352 264 -418 305 -9 6 -41 26 -72 46 -275 179 -633 360 -945 477
-151 56 -396 135 -457 146 -15 2 -31 7 -36 10 -5 3 -19 7 -33 10 -24 5 -107
22 -144 31 -93 20 -310 53 -400 60 -33 3 -73 8 -90 11 -33 6 -590 15 -596 9z"/>
</g>
</svg>
